<svg xmlns="http://www.w3.org/2000/svg"  viewBox="0 0 970.47 295.47">
  <g id="g10" transform="translate(-744.723 862.53)">
    <text id="text14" transform="translate(1040.193 -654.795)" fill="#8bd84e" font-size="176" font-family="Helvetica-Bold, Helvetica" font-weight="700"><tspan x="0" y="0">Lenstify</tspan></text>
    <g id="g16">
      <g id="g18" transform="translate(477.096 331.273) rotate(-25)">
        <g id="g24" transform="translate(707.365 -883.688)">
          <g id="g26">
            <path id="path34" d="M707.365-772.52a110.77,110.77,0,0,0,29.514,75.429h0l23.516-23.515V-768a62.842,62.842,0,0,1,62.657-62.658h47.4L760.395-720.606l6.228,6.227-23.517,23.516a110.765,110.765,0,0,0,75.428,29.513h0A111.169,111.169,0,0,0,929.7-772.52h0A111.169,111.169,0,0,0,818.534-883.688h0A111.169,111.169,0,0,0,707.365-772.52m169.312-51.913v10.385H866.292Zm-18.691,18.691h18.691v7.117H850.868Zm-15.558,15.558h34.249v8.44H833.988ZM825.547-773.3h51.013a62.121,62.121,0,0,1-1.215,9.091H816.458Zm-17.4,17.4h64.833a62.348,62.348,0,0,1-3.705,8.306H799.846ZM791.539-739.3h72.406a63.4,63.4,0,0,1-7.55,8.306H783.234Zm-16.611,16.612H845.1a62.124,62.124,0,0,1-31.077,8.306H766.623Z" transform="translate(-707.365 883.688)" fill="#8bd84e"/>
          </g>
        </g>
      </g>
    </g>
  </g>
</svg>
